<?xml version="1.0" encoding="UTF-8" standalone="no"?>
<!-- Created with Inkscape (http://www.inkscape.org/) -->

<svg
   width="40mm"
   height="20mm"
   viewBox="0 0 40 20"
   version="1.1"
   id="svg1"
   xmlns:xlink="http://www.w3.org/1999/xlink"
   xmlns="http://www.w3.org/2000/svg"
   xmlns:svg="http://www.w3.org/2000/svg">
  <defs
     id="defs1">
    <rect
       x="322.79727"
       y="861.46521"
       width="821.03668"
       height="269.27563"
       id="rect17" />
    <rect
       x="264.56693"
       y="793.70074"
       width="340.1575"
       height="302.36221"
       id="rect16" />
    <linearGradient
       id="linearGradient12">
      <stop
         style="stop-color:#ff7800;stop-opacity:1;"
         offset="0.60680753"
         id="stop10" />
      <stop
         style="stop-color:#ff3800;stop-opacity:0.37538621;"
         offset="0.73179883"
         id="stop11" />
      <stop
         style="stop-color:#ff0300;stop-opacity:0.11695895;"
         offset="0.87039363"
         id="stop16" />
      <stop
         style="stop-color:#000000;stop-opacity:0;"
         offset="0.99957228"
         id="stop12" />
    </linearGradient>
    <rect
       x="173.50645"
       y="267.44919"
       width="200.34724"
       height="295.24854"
       id="rect3" />
    <rect
       x="209.93323"
       y="451.50024"
       width="228.14661"
       height="193.63704"
       id="rect2" />
    <radialGradient
       xlink:href="#linearGradient12"
       id="radialGradient9"
       gradientUnits="userSpaceOnUse"
       cx="115"
       cy="130"
       fx="115"
       fy="130"
       r="45.000004"
       gradientTransform="matrix(0.05898588,-0.07217354,0.15406443,0.12591356,23.059515,41.436183)" />
    <filter
       style="color-interpolation-filters:sRGB"
       id="filter4"
       x="-0.2427987"
       y="-1.0657127"
       width="1.4855974"
       height="3.1314255">
      <feMorphology
         radius="1"
         id="feMorphology4"
         operator="dilate" />
      <feGaussianBlur
         stdDeviation="50.704225352112672"
         result="blur"
         id="feGaussianBlur4" />
      <feColorMatrix
         id="feColorMatrix6"
         result="result1"
         values="1.0000000 0.0000000 0.0000000 0.0000000 0.40000000 0.0000000 1.0000000 0.0000000 0.0000000 -0.40000000 0.0000000 0.0000000 1.0000000 0.0000000 0.0000000 0.0000000 0.0000000 0.0000000 0.50000000 0.0000000 " />
      <feMerge
         id="feMerge5"
         numOctaves="6">
        <feMergeNode
           id="feMergeNode5"
           in="result1" />
        <feMergeNode
           id="feMergeNode6"
           in="SourceGraphic" />
      </feMerge>
    </filter>
  </defs>
  <g
     id="layer1">
    <g
       id="g6"
       transform="matrix(0.18195829,0,0,0.18195829,0.75502244,0.51431815)">
      <g
         id="text17"
         style="font-size:192px;font-family:DSLogo;-inkscape-font-specification:DSLogo;letter-spacing:0px;white-space:pre;fill:#ff7800;stroke-width:54.5;filter:url(#filter4)"
         transform="matrix(0.29072348,0,0,0.29072348,-61.537634,-224.07412)"
         aria-label="UNSEEN">
        <path
           style="letter-spacing:-40.8712px"
           d="m 398.17187,987.08984 q -5.8125,6.46875 -13.96875,9.9375 -8.15625,3.46876 -17.8125,3.46876 -12.375,0 -22.40625,-6.28126 -10.03125,-6.375 -15.65625,-17.34375 -5.53125,-11.0625 -5.53125,-24.46875 v -66.75 h 10.5 v 66.75 q 0,16.96875 9.09375,27.375 9.1875,10.3125 24,10.3125 15.09375,0 24,-9.9375 z"
           id="path2" />
        <path
           d="m 374.73817,885.46484 h 19.21875 q 13.6875,0 24.28125,5.25 10.6875,5.15625 17.53125,14.25 12.28125,16.3125 12.28125,41.53125 v 48.75 5.34371 h -10.6875 v -5.34371 -48.75 q 0,-21.65625 -10.21875,-35.15625 -11.4375,-15.1875 -33.1875,-15.1875 h -13.875 -5.34375 z m 124.78125,0 h 53.15625 v 10.5 h -5.15625 -48 q -10.125,0 -16.125,6 -5.90625,5.90625 -5.90625,16.875 0,9.1875 6.46875,15.84375 6.46875,6.65625 15.5625,6.65625 h 20.53125 q 14.71875,0 23.625,8.53125 9,8.4375 9,20.25 0,10.40625 -4.59375,17.34375 -4.59375,6.9375 -10.875,10.5 l -4.6875,2.62496 -5.15625,-8.99996 4.40625,-2.71875 q 2.25,-1.3125 3.75,-2.53125 1.59375,-1.3125 3.28125,-3.46875 1.6875,-2.15625 2.53125,-5.34375 0.84375,-3.1875 0.84375,-7.40625 0,-7.78125 -5.625,-13.03125 -5.53125,-5.25 -16.5,-5.25 h -20.71875 q -7.875,0 -15.375,-4.40625 -7.5,-4.5 -12.28125,-12.1875 -4.78125,-7.78125 -4.78125,-16.40625 0,-7.125 2.34375,-13.59375 2.34375,-6.46875 6.65625,-10.78125 9,-9 23.625,-9 z m 70.96875,0 h 73.3125 v 10.6875 h -5.34375 -62.625 -5.34375 z m 6.9375,55.6875 h 5.34375 20.90625 5.4375 v 10.6875 h -5.4375 -20.90625 -5.34375 z m -6.9375,48.75 h 5.34375 62.625 5.34375 v 10.68746 h -73.3125 z m 92.15624,-104.4375 h 73.3125 v 10.6875 h -5.34375 -62.625 -5.34375 z m 6.9375,55.6875 h 5.34375 20.90625 5.4375 v 10.6875 h -5.4375 -20.90625 -5.34375 z m -6.9375,48.75 h 5.34375 62.625 5.34375 v 10.68746 h -73.3125 z m 92.15625,-104.4375 h 19.21875 q 13.6875,0 24.28125,5.25 10.6875,5.15625 17.53125,14.25 12.28125,16.3125 12.28125,41.53125 v 48.75 5.34371 h -10.6875 v -5.34371 -48.75 q 0,-21.65625 -10.21875,-35.15625 -11.4375,-15.1875 -33.1875,-15.1875 h -13.875 -5.34375 z"
           id="path3" />
      </g>
      <circle
         style="opacity:1;mix-blend-mode:screen;fill:url(#radialGradient9);fill-opacity:1;stroke:none;stroke-width:5.77682"
         id="circle9"
         cx="49.871269"
         cy="49.504993"
         r="10.015441" />
      <use
         x="0"
         y="0"
         xlink:href="#circle9"
         id="use12"
         transform="rotate(45,49.871271,49.504987)"
         style="mix-blend-mode:screen" />
      <use
         x="0"
         y="0"
         xlink:href="#use12"
         id="use13"
         transform="rotate(34.524316,49.871267,49.504987)" />
      <use
         x="0"
         y="0"
         xlink:href="#use13"
         id="use14"
         transform="matrix(0.61345903,0.74173309,-0.58279037,0.78076592,48.128318,-26.137987)" />
      <use
         x="0"
         y="0"
         xlink:href="#use14"
         id="use15"
         transform="matrix(1.0010421,0.49399307,-0.57382576,0.72260238,28.355267,-10.903496)" />
      <circle
         style="opacity:1;fill:#000000;fill-opacity:1;stroke:none;stroke-width:3.22308"
         id="path4"
         cx="49.871269"
         cy="49.504993"
         r="5.5879421" />
    </g>
  </g>
</svg>
